# xmcd CD database file
#
# Track frame offsets:
#	150
#	12125
#	26825
#	39763
#	52125
#	65163
#	78525
#	92275
#	102425
#	114825
#	128625
#	141150
#	152675
#	163763
#	174675
#
# Disc length: 2489 seconds
#
# Revision: 0
# Processed by: cddbd v1.4PL0 Copyright (c) Steve Scherf et al.
# Submitted via: CDex 1.40Beta9
#
DISCID=bf09b70f
DTITLE=Roots of Country  - Roots of Country  - Disk 2
DYEAR=1900
DGENRE=Country
TTITLE0="Walking the Floor Over You," Ernest Tubb 
TTITLE1="Old Shep," Red Foley 
TTITLE2="Sixteen Tons," Merle Travis 
TTITLE3="Jole Blon," Harry Choates 
TTITLE4="Anytime," Eddy Arnold 
TTITLE5="Five Minutes More," Homer and Jethro
TTITLE6="Blue Moon of Kentucky," Bill Monroe and the Blue Grass Boys 
TTITLE7="Country Gentleman," Chet Atkins" 
TTITLE8="Lovesick Blues," Hank Williams and His Drifting Cowboys 
TTITLE9="Tennessee Waltz," Patti Page 
TTITLE10="I Love You A Thousand Ways," Lefty Frizzell 
TTITLE11="It Wasn't God Who Made Honky Tonk Angels," Kitty Wells 
TTITLE12="There Stands the Glass," Webb Pierce 
TTITLE13="Out Behind the Barn," Little Jimmy Dickens 
TTITLE14="Release Me," Ray Price 
EXTD=ID3G: 2
EXTT0=
EXTT1=
EXTT2=
EXTT3=
EXTT4=
EXTT5=
EXTT6=
EXTT7=
EXTT8=
EXTT9=
EXTT10=
EXTT11=
EXTT12=
EXTT13=
EXTT14=
PLAYORDER=
